<svg
   xmlns:svg="http://www.w3.org/2000/svg"
   xmlns="http://www.w3.org/2000/svg"
   version="1.1"
   width="1024"
   height="201"
   viewBox="-0.78556107 -0.78556107 141.36987214 27.75649114"
   id="svg6249">
  <filter id="grayscale">
    <feColorMatrix type="matrix" values="0.3333 0.3333 0.3333 0 0 0.3333 0.3333 0.3333 0 0 0.3333 0.3333 0.3333 0 0 0 0 0 1 0"/>
  </filter>
  <defs
     id="defs6251" />
  <path
     d="m 75.70155,9.44512 c 0,-4.09 -2.295,-8.14375 -7.4325,-8.14375 l -0.32875,0 c -0.145,0 -0.2175,0.0362 -0.2175,0.1425 l 0,23.29375 c 0,0.1075 0.0725,0.14375 0.2175,0.14375 l 3.05875,0 c 0.0763,0 0.0763,0.7025 0,0.7025 l -11.73,0 c -0.0375,0 -0.0375,-0.7025 0,-0.7025 l 3.09625,0 c 0.145,0 0.21875,-0.0363 0.21875,-0.14375 l 0,-23.29375 c 0,-0.10625 -0.0737,-0.1425 -0.21875,-0.1425 l -0.3625,0 c -5.105,0 -7.215,4.05375 -7.215,8.14375 0,0.0688 -0.65625,0.0688 -0.65625,0 l 0,-8.7425 c 0,-0.035 0.0362,-0.105 0.10875,-0.105 l 22.0075,0 c 0.0737,0 0.0737,0.07 0.0737,0.105 l 0,8.7425 c 0,0.0688 -0.62,0.0688 -0.62,0 M 46.7365,26.185 c -2.36875,0 -4.55375,-1.44625 -5.8675,-1.44625 -1.01875,0 -1.82,0.70625 -1.895,1.34 -0.0713,0.10625 -0.72875,0.10625 -0.72875,0 l 0,-8.7425 c 0,-0.105 0.72875,-0.105 0.72875,0 0,2.8225 3.17125,8.17875 7.72625,8.17875 4.08125,0 5.68375,-2.15 5.68375,-4.44125 0,-3.4525 -2.04,-3.9475 -7.47,-5.92125 -3.28,-1.19625 -5.9025,-2.95875 -5.9025,-7.155 C 39.0115,3.31 42.29025,0 45.86025,0 c 2.15,0 2.47875,0.95 4.37375,0.95 1.02,0 1.38375,-0.45875 1.4575,-0.84625 0,-0.10375 0.655,-0.10375 0.655,0 l 0,6.83875 c 0,0.07 -0.655,0.07 -0.655,0 0,-3.34875 -2.55,-6.23875 -5.79375,-6.23875 -2.805,0 -4.44625,1.69 -4.44625,4.0875 0,2.53875 1.82375,3.63 6.2675,5.2175 4.52,1.725 7.36,3.2775 7.36,7.57625 0,4.01625 -2.84,8.6 -8.3425,8.6 M 36.10062,1.30162 c -0.10875,0 -0.065,0.095 -0.065,0.2 l 0,16.7275 c 0,4.86375 -2.87875,7.95625 -8.78,7.95625 -5.2475,0 -9.0375,-2.29125 -9.0375,-7.54375 l 0,-17.1975 c 0,-0.10625 -0.0737,-0.1425 -0.1825,-0.1425 l -3.09625,0 c -0.0738,0 -0.0738,-0.70375 0,-0.70375 l 11.76875,0 c 0.0713,0 0.0713,0.70375 0,0.70375 l -3.135,0 c -0.18125,0 -0.25375,0.0362 -0.25375,0.1425 l 0,17.1975 c 0,4.1225 1.0575,6.52125 4.84625,6.52125 4.7725,0 6.67125,-2.77625 6.67125,-6.93375 l -0.015,-16.71875 c 0,-0.10625 0.0288,-0.20875 -0.11625,-0.20875 l -3.18875,0 c -0.0713,0 -0.0713,-0.70375 0,-0.70375 l 7.5425,0 c 0.0725,0 0.0725,0.70375 0,0.70375 l -2.95875,0 z m -21.81812,0 c -0.2175,0 -0.29,0.0362 -0.29,0.1425 l 0,18.25375 c 0,4.09 -2.9875,6.4875 -7.325,6.4875 -3.205,0 -6.6675,-2.9625 -6.6675,-5.92125 0,-2.07875 1.6025,-3.45375 2.9875,-3.45375 1.5675,0 2.8425,1.40875 2.8425,2.9225 0,2.29375 -1.82,1.8 -1.82,3.49 0,1.235 1.41875,2.29125 2.6575,2.29125 1.8575,0 2.1875,-0.95125 2.1875,-2.89125 l 0,-21.17875 c 0,-0.10625 -0.0738,-0.1425 -0.14625,-0.1425 l -3.13375,0 c -0.0725,0 -0.0725,-0.70375 0,-0.70375 l 11.76875,0 c 0.075,0 0.075,0.70375 0,0.70375 l -3.06125,0 z"
     id="path5971"
     style="fill:#000000;fill-opacity:1;fill-rule:nonzero;stroke:none"
     filter="url(#grayscale)"/>
  <path
     d="m 123.30193,12.5865 -2.14875,0 0,12.15375 c 0,0.105 0.0737,0.14125 0.22,0.14125 l 2.44,0 c 3.3125,0 4.07875,-1.09375 4.07875,-5.70625 0,-5.6375 -1.02125,-6.58875 -4.59001,-6.58875 m -0.80125,-11.2725 -1.1275,0 c -0.14625,0 -0.21999,0.0338 -0.21999,0.1425 l 0,10.46125 2.51249,0 c 2.47875,0 3.02251,-1.0575 3.02251,-5.39 0,-4.1575 -0.83625,-5.21375 -4.18751,-5.21375 m 2.25875,24.27125 -12.055,0 c -0.1075,0 -0.1075,-0.70375 0,-0.70375 l 3.09625,0 c 0.145,0 0.2175,-0.0362 0.2175,-0.14125 l 0,-23.28375 c 0,-0.10875 -0.0725,-0.1425 -0.2175,-0.1425 l -3.09625,0 c -0.1075,0 -0.1075,-0.7025 0,-0.7025 l 10.37875,0 c 4.7725,0 8.23125,1.86625 8.23125,5.775 0,3.3825 -2.98625,5.88375 -6.01,5.88375 4.225,0 7.68625,2.49875 7.68625,6.6925 0,3.34625 -2.7325,6.6225 -8.23125,6.6225 m -23.71274,-18.47263 -3.10376,9.66 6.72,0 -3.61624,-9.66 z m 3.10625,18.4725 c -0.0725,0 -0.0725,-0.70375 0,-0.70375 l 3.09875,0 c 0.1075,0 0.18124,-0.0713 0.145,-0.0713 l -2.44125,-7.22375 -7.32251,-0.0163 -2.115,5.8625 c -0.40125,1.26875 -0.5425,1.44875 -0.5425,1.44875 l 2.875,0 c 0.10875,0 0.10875,0.70375 0,0.70375 l -7.03375,0 c -0.0725,0 -0.0725,-0.70375 0,-0.70375 l 2.77,0 c 0.3275,0 0.4,-0.10625 0.91,-1.48125 l 8.02876,-23.29625 c 0.0375,-0.103750000001 0.65874,-0.103750000001 0.69375,0 l 9.68,24.70625 c 0,0 0.10875,0.0713 0.255,0.0713 l 3.13125,0 c 0.075,0 0.075,0.70375 0,0.70375 l -12.1325,0 z M 95.59355,8.38525 c 0,-3.275 -2.66,-7.08375 -7.0325,-7.08375 l -2.55125,0 c -0.14375,0 -0.21875,0.0362 -0.21875,0.1425 l 0,10.96 0.62,0 c 2.84375,0 5.1025,-2.36125 5.1025,-4.795 0,-0.0688 0.6925,-0.0688 0.6925,0 l 0,10.2925 c 0,0.0737 -0.6925,0.0737 -0.6925,0 0,-2.3975 -2.25875,-4.7925 -5.1025,-4.7925 l -0.62,0 0,11.62875 c 0,0.1075 0.075,0.14375 0.21875,0.14375 l 3.135,0 c 0.0725,0 0.0725,0.70375 0,0.70375 l -11.80625,0 c -0.0725,0 -0.0725,-0.70375 0,-0.70375 l 3.13375,0 c 0.11,0 0.18375,-0.0362 0.18375,-0.14375 l 0,-23.29375 c 0,-0.10625 -0.0737,-0.1425 -0.18375,-0.1425 l -3.13375,0 c -0.0725,0 -0.0725,-0.70375 0,-0.70375 l 18.87375,0 c 0.0737,0 0.11125,0.07 0.11125,0.10625 l 0,7.68125 c 0,0.0362 -0.73,0.0362 -0.73,0"
     id="path5983"
     style="fill:#f50055;fill-opacity:1;fill-rule:nonzero;stroke:none"
     filter="url(#grayscale)"/>
  <path
     d="m 139.21505,2.74037 c -0.0263,-0.53625 -0.0613,-1.19 -0.0613,-1.66375 l -0.0112,0 c -0.1375,0.4475 -0.2925,0.93125 -0.48625,1.46375 l -0.6825,1.87 -0.37625,0 -0.62875,-1.83625 c -0.1825,-0.54875 -0.33125,-1.04 -0.44,-1.4975 l -0.0112,0 c -0.0125,0.47875 -0.04,1.12 -0.0738,1.70375 l -0.105,1.65125 -0.4725,0 0.2675,-3.8525 0.63625,0 0.6575,1.8625 c 0.15875,0.47625 0.285,0.89875 0.3875,1.2975 l 0.0112,0 c 0.10375,-0.3875 0.24,-0.81 0.41125,-1.2975 l 0.685,-1.8625 0.63625,0 0.24,3.8525 -0.49125,0 -0.0925,-1.69125 z m -5.35412,-1.73637 -1.17125,0 0,-0.425 2.8525,0 0,0.425 -1.1775,0 0,3.42875 -0.50375,0 0,-3.42875 z"
     id="path5991"
     style="fill:#000000;fill-opacity:1;fill-rule:nonzero;stroke:none"
     filter="url(#grayscale)"/>
</svg>
