<?xml version="1.0" encoding="utf-8"?>
<!-- Generator: Adobe Illustrator 21.1.0, SVG Export Plug-In . SVG Version: 6.00 Build 0)  -->
<svg version="1.1" id="Layer_1" xmlns="http://www.w3.org/2000/svg" xmlns:xlink="http://www.w3.org/1999/xlink" x="0px" y="0px"
	 viewBox="0 0 540 122.52" enable-background="new 0 0 540 122.52" xml:space="preserve">
<g id="Layer_1_1_">
</g>
<g id="Layer_2">
	<g>
		<path fill="#555555" d="M313.19,48.23h-21.26v2.26c6.65,0,7.72,1.42,7.72,9.86v15.2c0,8.43-1.07,9.97-7.72,9.97
			c-5.11-0.71-8.55-3.44-13.3-8.67l-5.46-5.94c7.36-1.31,11.28-5.94,11.28-11.16c0-6.53-5.58-11.52-16.03-11.52h-20.9v2.26
			c6.65,0,7.72,1.42,7.72,9.86v15.2c0,8.43-1.07,9.97-7.72,9.97v2.26h23.63v-2.26c-6.65,0-7.72-1.54-7.72-9.97v-4.27h2.02
			l13.18,16.5h34.56c16.98,0,24.34-9.02,24.34-19.83C337.53,57.13,330.17,48.23,313.19,48.23z M263.43,67.58V51.79h4.87
			c5.34,0,7.72,3.68,7.72,7.96c0,4.16-2.38,7.84-7.72,7.84L263.43,67.58L263.43,67.58z M313.55,84.09h-0.83
			c-4.27,0-4.87-1.07-4.87-6.53V51.79c0,0,5.23,0,5.7,0c12.35,0,14.61,9.02,14.61,16.03C328.15,75.06,325.9,84.09,313.55,84.09z"/>
		<path fill="#555555" d="M181.38,71.98l8.19-24.23c2.38-7.01,1.31-9.02-6.29-9.02v-2.38h22.32v2.38c-7.48,0-9.26,1.78-12.23,10.45
			l-13.54,40.61h-1.54l-12.11-37.17l-12.35,37.17h-1.54L139.1,49.18c-2.85-8.67-4.75-10.45-11.64-10.45v-2.38h26.36v2.38
			c-7.01,0-8.91,1.66-6.41,9.02l7.96,24.23l11.99-35.63h2.26L181.38,71.98z"/>
		<path fill="#555555" d="M221.75,89.31c-13.06,0-23.75-9.62-23.75-21.38c0-11.64,10.69-21.26,23.75-21.26
			c13.06,0,23.75,9.62,23.75,21.26C245.5,79.7,234.82,89.31,221.75,89.31z M221.75,50.37c-10.92,0-14.73,9.85-14.73,17.57
			c0,7.84,3.8,17.58,14.73,17.58c11.04,0,14.85-9.74,14.85-17.58C236.6,60.22,232.8,50.37,221.75,50.37z"/>
		<path fill="#444444" d="M366.86,85.4v2.38h-27.19V85.4c7.96,0,9.38-2.02,9.38-13.89v-19c0-11.88-1.42-13.78-9.38-13.78v-2.38
			h24.58c12.23,0,19,6.29,19,14.73c0,8.19-6.77,14.61-19,14.61h-6.77v5.82C357.48,83.38,358.91,85.4,366.86,85.4z M364.25,40.62
			h-6.77v20.66h6.77c6.65,0,9.74-4.63,9.74-10.21C373.99,45.38,370.9,40.62,364.25,40.62z"/>
		<path fill="#444444" d="M464.83,76.61l-0.59,2.14c-1.07,3.92-2.38,5.34-10.81,5.34h-1.66c-6.17,0-7.24-1.43-7.24-9.86v-5.46
			c9.26,0,9.98,0.83,9.98,7.01h2.26V58.08h-2.26c0,6.18-0.71,7.01-9.98,7.01v-13.3h6.53c8.43,0,9.74,1.42,10.81,5.34l0.6,2.26h1.9
			l-0.83-11.16h-34.91v2.26c6.65,0,7.72,1.42,7.72,9.86v15.2c0,7.71-0.91,9.66-6.15,9.93c-4.98-0.76-8.4-3.48-13.08-8.63l-5.46-5.94
			c7.36-1.31,11.28-5.94,11.28-11.16c0-6.53-5.58-11.52-16.03-11.52h-20.9v2.26c6.65,0,7.72,1.42,7.72,9.86v15.2
			c0,8.43-1.07,9.97-7.72,9.97v2.26h23.63v-2.26c-6.65,0-7.72-1.54-7.72-9.97v-4.27h2.02l13.18,16.5h48.81l0.71-11.16L464.83,76.61
			L464.83,76.61z M401.9,67.58V51.79h4.87c5.34,0,7.72,3.68,7.72,7.96c0,4.16-2.38,7.84-7.72,7.84L401.9,67.58L401.9,67.58z"/>
		<path fill="#444444" d="M488.94,89.31c-4.75,0-8.91-2.49-10.69-4.04c-0.59,0.6-1.66,2.38-1.9,4.04h-2.26V72.93h2.38
			c0.95,7.84,6.41,12.47,13.42,12.47c3.8,0,6.89-2.14,6.89-5.7c0-3.09-2.73-5.46-7.6-7.72l-6.77-3.21
			c-4.75-2.26-8.31-6.18-8.31-11.4c0-5.7,5.34-10.57,12.71-10.57c3.92,0,7.24,1.42,9.26,3.09c0.59-0.47,1.19-1.78,1.54-3.21h2.26
			V60.7h-2.49c-0.83-5.58-3.92-10.21-10.21-10.21c-3.33,0-6.41,1.9-6.41,4.87c0,3.09,2.49,4.75,8.2,7.36l6.53,3.21
			c5.7,2.73,7.96,7.13,7.96,10.69C503.43,84.09,496.89,89.31,488.94,89.31z"/>
		<path fill="#444444" d="M525.51,89.31c-4.75,0-8.91-2.49-10.69-4.04c-0.59,0.6-1.66,2.38-1.9,4.04h-2.26V72.93h2.38
			c0.95,7.84,6.41,12.47,13.42,12.47c3.8,0,6.89-2.14,6.89-5.7c0-3.09-2.73-5.46-7.6-7.72l-6.77-3.21
			c-4.75-2.26-8.31-6.18-8.31-11.4c0-5.7,5.34-10.57,12.71-10.57c3.92,0,7.24,1.42,9.26,3.09c0.59-0.47,1.19-1.78,1.54-3.21h2.26
			V60.7h-2.49c-0.83-5.58-3.92-10.21-10.21-10.21c-3.33,0-6.41,1.9-6.41,4.87c0,3.09,2.49,4.75,8.2,7.36l6.53,3.21
			c5.7,2.73,7.96,7.13,7.96,10.69C540,84.09,533.47,89.31,525.51,89.31z"/>
		<g>
			<path fill="#444444" d="M8.71,61.26c0,20.8,12.09,38.78,29.62,47.3L13.26,39.87C10.34,46.41,8.71,53.64,8.71,61.26z"/>
			<path fill="#444444" d="M96.74,58.61c0-6.49-2.33-10.99-4.33-14.49c-2.66-4.33-5.16-7.99-5.16-12.32c0-4.83,3.66-9.33,8.82-9.33
				c0.23,0,0.45,0.03,0.68,0.04c-9.35-8.57-21.81-13.8-35.49-13.8c-18.36,0-34.51,9.42-43.91,23.69c1.23,0.04,2.4,0.06,3.38,0.06
				c5.5,0,14.01-0.67,14.01-0.67c2.83-0.17,3.17,3.99,0.34,4.33c0,0-2.85,0.33-6.01,0.5L48.2,93.55l11.5-34.49l-8.19-22.43
				c-2.83-0.17-5.51-0.5-5.51-0.5c-2.83-0.17-2.5-4.5,0.33-4.33c0,0,8.68,0.67,13.84,0.67c5.5,0,14.01-0.67,14.01-0.67
				c2.83-0.17,3.17,3.99,0.34,4.33c0,0-2.85,0.33-6.01,0.5L87.5,93.11l5.24-17.52C95.01,68.33,96.74,63.11,96.74,58.61z"/>
			<path fill="#444444" d="M62.18,65.86l-15.77,45.82c4.71,1.38,9.69,2.14,14.85,2.14c6.12,0,11.99-1.06,17.45-2.98
				c-0.14-0.22-0.27-0.46-0.37-0.72L62.18,65.86z"/>
			<path fill="#444444" d="M107.38,36.05c0.23,1.67,0.35,3.47,0.35,5.4c0,5.33-1,11.33-4,18.82l-16.05,46.41
				c15.62-9.11,26.13-26.04,26.13-45.43C113.82,52.12,111.48,43.53,107.38,36.05z"/>
			<path fill="#444444" d="M61.26,0C27.48,0,0,27.48,0,61.26c0,33.78,27.48,61.26,61.26,61.26c33.78,0,61.26-27.48,61.26-61.26
				C122.53,27.48,95.04,0,61.26,0z M61.26,119.71c-32.23,0-58.45-26.22-58.45-58.46c0-32.23,26.22-58.45,58.45-58.45
				c32.23,0,58.45,26.22,58.45,58.45C119.71,93.49,93.49,119.71,61.26,119.71z"/>
		</g>
	</g>
</g>
</svg>
